ISO-10303-21;
HEADER;
FILE_DESCRIPTION (( 'STEP AP214' ),
    '1' );
FILE_NAME ('TANK.STEP',
    '2026-04-26T11:20:39',
    ( '' ),
    ( '' ),
    'SwSTEP 2.0',
    'SolidWorks 2022',
    '' );
FILE_SCHEMA (( 'AUTOMOTIVE_DESIGN' ));
ENDSEC;

DATA;
#1 = DIRECTION ( 'NONE',  ( -0.000000000000000000, -1.000000000000000000, -0.000000000000000000 ) ) ;
#2 = DIRECTION ( 'NONE',  ( 0.000000000000000000, -1.000000000000000000, 0.000000000000000000 ) ) ;
#3 = ORIENTED_EDGE ( 'NONE', *, *, #356, .T. ) ;
#4 = CARTESIAN_POINT ( 'NONE',  ( 0.000000000000000000, -6.000000000000000000, 0.000000000000000000 ) ) ;
#5 = PLANE ( 'NONE',  #329 ) ;
#6 = DIRECTION ( 'NONE',  ( -1.224646799147353207E-16, -1.000000000000000000, -0.000000000000000000 ) ) ;
#7 = EDGE_CURVE ( 'NONE', #609, #44, #595, .T. ) ;
#8 = LINE ( 'NONE', #396, #188 ) ;
#9 =( NAMED_UNIT ( * ) PLANE_ANGLE_UNIT ( ) SI_UNIT ( $, .RADIAN. ) );
#10 = EDGE_LOOP ( 'NONE', ( #519, #14, #309, #130, #245 ) ) ;
#11 = CARTESIAN_POINT ( 'NONE',  ( 36.00000000000000000, -6.000000000000000000, -6.000000000000000000 ) ) ;
#12 = FACE_OUTER_BOUND ( 'NONE', #557, .T. ) ;
#13 = EDGE_LOOP ( 'NONE', ( #279, #397, #449, #353 ) ) ;
#14 = ORIENTED_EDGE ( 'NONE', *, *, #121, .T. ) ;
#15 = EDGE_CURVE ( 'NONE', #87, #430, #318, .T. ) ;
#16 = DIRECTION ( 'NONE',  ( 0.000000000000000000, 0.000000000000000000, 1.000000000000000000 ) ) ;
#17 = AXIS2_PLACEMENT_3D ( 'NONE', #288, #340, #208 ) ;
#18 = CIRCLE ( 'NONE', #373, 29.39387691339814168 ) ;
#19 = VERTEX_POINT ( 'NONE', #256 ) ;
#20 = CARTESIAN_POINT ( 'NONE',  ( 24.97999199359359679, 0.000000000000000000, 0.000000000000000000 ) ) ;
#21 = ORIENTED_EDGE ( 'NONE', *, *, #389, .F. ) ;
#22 = STYLED_ITEM ( 'NONE', ( #486 ), #90 ) ;
#23 = DIRECTION ( 'NONE',  ( 1.000000000000000000, -0.000000000000000000, -0.000000000000000000 ) ) ;
#24 = VECTOR ( 'NONE', #446, 1000.000000000000000 ) ;
#25 = ORIENTED_EDGE ( 'NONE', *, *, #576, .F. ) ;
#26 = AXIS2_PLACEMENT_3D ( 'NONE', #319, #524, #234 ) ;
#27 = CARTESIAN_POINT ( 'NONE',  ( 0.000000000000000000, 0.000000000000000000, 0.000000000000000000 ) ) ;
#28 = AXIS2_PLACEMENT_3D ( 'NONE', #212, #312, #608 ) ;
#29 = VERTEX_POINT ( 'NONE', #11 ) ;
#30 = EDGE_CURVE ( 'NONE', #379, #384, #476, .T. ) ;
#31 = DIRECTION ( 'NONE',  ( 0.000000000000000000, 0.000000000000000000, 1.000000000000000000 ) ) ;
#32 = ORIENTED_EDGE ( 'NONE', *, *, #224, .F. ) ;
#33 = AXIS2_PLACEMENT_3D ( 'NONE', #154, #48, #341 ) ;
#34 = DIRECTION ( 'NONE',  ( 0.000000000000000000, 1.000000000000000000, 0.000000000000000000 ) ) ;
#35 = CARTESIAN_POINT ( 'NONE',  ( 0.000000000000000000, -8.673617379884035472E-16, 6.000000000000000888 ) ) ;
#36 = ORIENTED_EDGE ( 'NONE', *, *, #274, .F. ) ;
#37 = DIRECTION ( 'NONE',  ( 0.000000000000000000, -1.000000000000000000, -0.000000000000000000 ) ) ;
#38 = DIRECTION ( 'NONE',  ( 0.000000000000000000, 0.000000000000000000, -1.000000000000000000 ) ) ;
#39 = EDGE_CURVE ( 'NONE', #115, #564, #547, .T. ) ;
#40 = DIRECTION ( 'NONE',  ( 1.000000000000000000, 0.000000000000000000, 0.000000000000000000 ) ) ;
#41 = DIRECTION ( 'NONE',  ( 0.000000000000000000, 1.000000000000000000, -0.000000000000000000 ) ) ;
#42 = ORIENTED_EDGE ( 'NONE', *, *, #335, .F. ) ;
#43 = DIRECTION ( 'NONE',  ( 0.000000000000000000, 0.000000000000000000, 1.000000000000000000 ) ) ;
#44 = VERTEX_POINT ( 'NONE', #162 ) ;
#45 = EDGE_CURVE ( 'NONE', #462, #379, #18, .T. ) ;
#46 = DIRECTION ( 'NONE',  ( 1.000000000000000000, -0.000000000000000000, -0.000000000000000000 ) ) ;
#47 = DIRECTION ( 'NONE',  ( 1.000000000000000000, -0.000000000000000000, -0.000000000000000000 ) ) ;
#48 = DIRECTION ( 'NONE',  ( 0.000000000000000000, 1.000000000000000000, -0.000000000000000000 ) ) ;
#49 = DIRECTION ( 'NONE',  ( 1.000000000000000000, 0.000000000000000000, 0.000000000000000000 ) ) ;
#50 = CARTESIAN_POINT ( 'NONE',  ( 36.00000000000000000, 1.224646799147353207E-16, -1.000000000000000000 ) ) ;
#51 = AXIS2_PLACEMENT_3D ( 'NONE', #385, #184, #377 ) ;
#52 = VECTOR ( 'NONE', #413, 1000.000000000000000 ) ;
#53 = DIRECTION ( 'NONE',  ( 0.000000000000000000, 0.000000000000000000, -1.000000000000000000 ) ) ;
#54 = SHAPE_DEFINITION_REPRESENTATION ( #63, #90 ) ;
#55 = ADVANCED_FACE ( 'NONE', ( #99 ), #203, .F. ) ;
#56 = CIRCLE ( 'NONE', #408, 29.39387691339814168 ) ;
#57 = CIRCLE ( 'NONE', #523, 1.000000000000000000 ) ;
#58 = DIRECTION ( 'NONE',  ( -1.000000000000000000, -0.000000000000000000, -0.000000000000000000 ) ) ;
#59 = VERTEX_POINT ( 'NONE', #102 ) ;
#60 = ORIENTED_EDGE ( 'NONE', *, *, #619, .T. ) ;
#61 = DIRECTION ( 'NONE',  ( 0.000000000000000000, 0.000000000000000000, 1.000000000000000000 ) ) ;
#62 = ADVANCED_FACE ( 'NONE', ( #536, #290 ), #5, .T. ) ;
#63 = PRODUCT_DEFINITION_SHAPE ( 'NONE', 'NONE',  #110 ) ;
#64 = VERTEX_POINT ( 'NONE', #293 ) ;
#65 = CARTESIAN_POINT ( 'NONE',  ( 24.97999199359359679, 0.000000000000000000, 0.000000000000000000 ) ) ;
#66 = ORIENTED_EDGE ( 'NONE', *, *, #152, .T. ) ;
#67 = AXIS2_PLACEMENT_3D ( 'NONE', #605, #456, #359 ) ;
#68 = CARTESIAN_POINT ( 'NONE',  ( -27.99999999999999645, 6.000000000000000000, -5.999999999999998224 ) ) ;
#69 = ORIENTED_EDGE ( 'NONE', *, *, #15, .T. ) ;
#70 = DIRECTION ( 'NONE',  ( -1.000000000000000000, 1.224646799147353207E-16, 0.000000000000000000 ) ) ;
#71 = ORIENTED_EDGE ( 'NONE', *, *, #374, .F. ) ;
#72 = CIRCLE ( 'NONE', #237, 1.000000000000000000 ) ;
#73 = DIRECTION ( 'NONE',  ( 1.000000000000000000, -1.224646799147353207E-16, 0.000000000000000000 ) ) ;
#74 = CIRCLE ( 'NONE', #137, 29.39387691339814168 ) ;
#75 = EDGE_CURVE ( 'NONE', #609, #59, #487, .T. ) ;
#76 = ORIENTED_EDGE ( 'NONE', *, *, #427, .T. ) ;
#77 = CARTESIAN_POINT ( 'NONE',  ( -27.99999999999999645, -6.000000000000000000, -6.000000000000000000 ) ) ;
#78 = AXIS2_PLACEMENT_3D ( 'NONE', #622, #471, #179 ) ;
#79 = EDGE_LOOP ( 'NONE', ( #173, #211, #168, #321, #25, #273, #419, #387, #181, #368 ) ) ;
#80 = LINE ( 'NONE', #562, #193 ) ;
#81 = DIRECTION ( 'NONE',  ( 0.000000000000000000, -1.000000000000000000, -1.475412278114711559E-16 ) ) ;
#82 = ORIENTED_EDGE ( 'NONE', *, *, #480, .T. ) ;
#83 = AXIS2_PLACEMENT_3D ( 'NONE', #525, #614, #93 ) ;
#84 = EDGE_CURVE ( 'NONE', #384, #529, #586, .T. ) ;
#85 = CARTESIAN_POINT ( 'NONE',  ( -36.00000000000000000, 0.000000000000000000, 1.000000000000000000 ) ) ;
#86 = CARTESIAN_POINT ( 'NONE',  ( 0.000000000000000000, 8.673617379884033500E-16, -5.999999999999999112 ) ) ;
#87 = VERTEX_POINT ( 'NONE', #345 ) ;
#88 = DIRECTION ( 'NONE',  ( 1.000000000000000000, -0.000000000000000000, -0.000000000000000000 ) ) ;
#89 = DIRECTION ( 'NONE',  ( 0.000000000000000000, -1.445602896647339163E-16, 1.000000000000000000 ) ) ;
#90 = ADVANCED_BREP_SHAPE_REPRESENTATION ( 'TANK', ( #463, #227 ), #498 ) ;
#91 = CIRCLE ( 'NONE', #142, 30.00000000000000355 ) ;
#92 = DIRECTION ( 'NONE',  ( 0.000000000000000000, -1.000000000000000000, -1.445602896647339163E-16 ) ) ;
#93 = DIRECTION ( 'NONE',  ( 1.000000000000000000, 0.000000000000000000, 0.000000000000000000 ) ) ;
#94 = DIRECTION ( 'NONE',  ( -1.000000000000000000, -0.000000000000000000, -0.000000000000000000 ) ) ;
#95 = CARTESIAN_POINT ( 'NONE',  ( 0.000000000000000000, 0.000000000000000000, 0.000000000000000000 ) ) ;
#96 = EDGE_CURVE ( 'NONE', #166, #564, #159, .T. ) ;
#97 = VERTEX_POINT ( 'NONE', #156 ) ;
#98 =( NAMED_UNIT ( * ) SI_UNIT ( $, .STERADIAN. ) SOLID_ANGLE_UNIT ( ) );
#99 = FACE_OUTER_BOUND ( 'NONE', #412, .T. ) ;
#100 = CARTESIAN_POINT ( 'NONE',  ( 36.00000000000000000, 0.000000000000000000, 0.000000000000000000 ) ) ;
#101 = EDGE_CURVE ( 'NONE', #120, #549, #348, .T. ) ;
#102 = CARTESIAN_POINT ( 'NONE',  ( -24.97999199359359679, 1.224646799147353207E-16, -1.000000000000000000 ) ) ;
#103 = AXIS2_PLACEMENT_3D ( 'NONE', #86, #132, #81 ) ;
#104 = AXIS2_PLACEMENT_3D ( 'NONE', #538, #2, #53 ) ;
#105 = CARTESIAN_POINT ( 'NONE',  ( -28.77498913987631823, -6.000000000000000000, -6.000000000000000000 ) ) ;
#106 = AXIS2_PLACEMENT_3D ( 'NONE', #617, #416, #560 ) ;
#107 = ORIENTED_EDGE ( 'NONE', *, *, #30, .F. ) ;
#108 = DIRECTION ( 'NONE',  ( 0.000000000000000000, -1.445602896647339163E-16, 1.000000000000000000 ) ) ;
#109 = VECTOR ( 'NONE', #183, 1000.000000000000000 ) ;
#110 = PRODUCT_DEFINITION ( 'UNKNOWN', '', #578, #620 ) ;
#111 = DIRECTION ( 'NONE',  ( 0.000000000000000000, 0.000000000000000000, 1.000000000000000000 ) ) ;
#112 = VECTOR ( 'NONE', #47, 1000.000000000000000 ) ;
#113 = VERTEX_POINT ( 'NONE', #482 ) ;
#114 = DIRECTION ( 'NONE',  ( 0.000000000000000000, 1.445602896647339163E-16, -1.000000000000000000 ) ) ;
#115 = VERTEX_POINT ( 'NONE', #530 ) ;
#116 = ORIENTED_EDGE ( 'NONE', *, *, #189, .F. ) ;
#117 = PLANE ( 'NONE',  #67 ) ;
#118 = ORIENTED_EDGE ( 'NONE', *, *, #366, .F. ) ;
#119 = DIRECTION ( 'NONE',  ( 0.000000000000000000, -1.445602896647339163E-16, 1.000000000000000000 ) ) ;
#120 = VERTEX_POINT ( 'NONE', #50 ) ;
#121 = EDGE_CURVE ( 'NONE', #269, #545, #74, .T. ) ;
#122 = DIRECTION ( 'NONE',  ( 0.000000000000000000, -1.000000000000000000, -1.445602896647339163E-16 ) ) ;
#123 = VERTEX_POINT ( 'NONE', #205 ) ;
#124 = VECTOR ( 'NONE', #38, 1000.000000000000000 ) ;
#125 = DIRECTION ( 'NONE',  ( 0.000000000000000000, 0.000000000000000000, 1.000000000000000000 ) ) ;
#126 = EDGE_LOOP ( 'NONE', ( #428, #510, #220, #116 ) ) ;
#127 = FACE_BOUND ( 'NONE', #629, .T. ) ;
#128 = CARTESIAN_POINT ( 'NONE',  ( 0.000000000000000000, 6.000000000000000000, 0.000000000000000000 ) ) ;
#129 = EDGE_CURVE ( 'NONE', #390, #559, #295, .T. ) ;
#130 = ORIENTED_EDGE ( 'NONE', *, *, #509, .T. ) ;
#131 = LINE ( 'NONE', #376, #109 ) ;
#132 = DIRECTION ( 'NONE',  ( 0.000000000000000000, -1.445602896647339163E-16, 1.000000000000000000 ) ) ;
#133 = EDGE_LOOP ( 'NONE', ( #414, #592, #552, #3 ) ) ;
#134 = AXIS2_PLACEMENT_3D ( 'NONE', #128, #320, #465 ) ;
#135 = CARTESIAN_POINT ( 'NONE',  ( -36.00000000000000000, 0.000000000000000000, 0.000000000000000000 ) ) ;
#136 =( NAMED_UNIT ( * ) SI_UNIT ( $, .STERADIAN. ) SOLID_ANGLE_UNIT ( ) );
#137 = AXIS2_PLACEMENT_3D ( 'NONE', #478, #495, #393 ) ;
#138 = CARTESIAN_POINT ( 'NONE',  ( 28.77498913987631823, 6.000000000000000000, -5.999999999999998224 ) ) ;
#139 = CARTESIAN_POINT ( 'NONE',  ( -36.00000000000000000, -6.000000000000000000, 6.000000000000000000 ) ) ;
#140 = VECTOR ( 'NONE', #46, 1000.000000000000000 ) ;
#141 = EDGE_LOOP ( 'NONE', ( #540, #182, #71, #607 ) ) ;
#142 = AXIS2_PLACEMENT_3D ( 'NONE', #214, #226, #73 ) ;
#143 = SURFACE_STYLE_FILL_AREA ( #511 ) ;
#144 = LINE ( 'NONE', #521, #249 ) ;
#145 = EDGE_CURVE ( 'NONE', #29, #64, #432, .T. ) ;
#146 = AXIS2_PLACEMENT_3D ( 'NONE', #4, #202, #291 ) ;
#147 = EDGE_LOOP ( 'NONE', ( #277, #178, #350, #42 ) ) ;
#148 = DIRECTION ( 'NONE',  ( 1.000000000000000000, 0.000000000000000000, 0.000000000000000000 ) ) ;
#149 = ORIENTED_EDGE ( 'NONE', *, *, #39, .F. ) ;
#150 = DIRECTION ( 'NONE',  ( 0.000000000000000000, -1.000000000000000000, -1.475412278114711559E-16 ) ) ;
#151 = CARTESIAN_POINT ( 'NONE',  ( -1.836970198721029983E-15, 0.000000000000000000, -30.00000000000000355 ) ) ;
#152 = EDGE_CURVE ( 'NONE', #113, #44, #381, .T. ) ;
#153 = AXIS2_PLACEMENT_3D ( 'NONE', #532, #494, #575 ) ;
#154 = CARTESIAN_POINT ( 'NONE',  ( 27.99999999999999645, -6.000000000000000000, -6.000000000000000000 ) ) ;
#155 = DIRECTION ( 'NONE',  ( 1.000000000000000000, 0.000000000000000000, 0.000000000000000000 ) ) ;
#156 = CARTESIAN_POINT ( 'NONE',  ( -28.77498913987631823, 6.000000000000000000, 6.000000000000001776 ) ) ;
#157 = CIRCLE ( 'NONE', #313, 29.39387691339814168 ) ;
#158 = ORIENTED_EDGE ( 'NONE', *, *, #287, .T. ) ;
#159 = CIRCLE ( 'NONE', #566, 30.00000000000000355 ) ;
#160 = LINE ( 'NONE', #351, #539 ) ;
#161 = ORIENTED_EDGE ( 'NONE', *, *, #496, .F. ) ;
#162 = CARTESIAN_POINT ( 'NONE',  ( 1.530808498934191521E-15, 0.000000000000000000, 25.00000000000000000 ) ) ;
#163 = DIRECTION ( 'NONE',  ( 0.000000000000000000, 1.000000000000000000, 1.475412278114711559E-16 ) ) ;
#164 = ORIENTED_EDGE ( 'NONE', *, *, #7, .F. ) ;
#165 = DIRECTION ( 'NONE',  ( -1.000000000000000000, -0.000000000000000000, -0.000000000000000000 ) ) ;
#166 = VERTEX_POINT ( 'NONE', #151 ) ;
#167 = DIRECTION ( 'NONE',  ( -0.000000000000000000, -1.000000000000000000, 0.000000000000000000 ) ) ;
#168 = ORIENTED_EDGE ( 'NONE', *, *, #489, .F. ) ;
#169 = CIRCLE ( 'NONE', #221, 30.00000000000000355 ) ;
#170 = ADVANCED_FACE ( 'NONE', ( #250 ), #342, .F. ) ;
#171 = PLANE ( 'NONE',  #492 ) ;
#172 = AXIS2_PLACEMENT_3D ( 'NONE', #301, #114, #163 ) ;
#173 = ORIENTED_EDGE ( 'NONE', *, *, #96, .F. ) ;
#174 = DIRECTION ( 'NONE',  ( 1.000000000000000000, 0.000000000000000000, 0.000000000000000000 ) ) ;
#175 = VERTEX_POINT ( 'NONE', #105 ) ;
#176 = ADVANCED_FACE ( 'NONE', ( #12 ), #247, .F. ) ;
#177 = CARTESIAN_POINT ( 'NONE',  ( 27.99999999999999645, -6.000000000000000000, 6.000000000000000000 ) ) ;
#178 = ORIENTED_EDGE ( 'NONE', *, *, #415, .T. ) ;
#179 = DIRECTION ( 'NONE',  ( 0.000000000000000000, -0.000000000000000000, -1.000000000000000000 ) ) ;
#180 = DIRECTION ( 'NONE',  ( 0.000000000000000000, 1.445602896647339163E-16, -1.000000000000000000 ) ) ;
#181 = ORIENTED_EDGE ( 'NONE', *, *, #45, .F. ) ;
#182 = ORIENTED_EDGE ( 'NONE', *, *, #526, .F. ) ;
#183 = DIRECTION ( 'NONE',  ( 0.000000000000000000, 0.000000000000000000, -1.000000000000000000 ) ) ;
#184 = DIRECTION ( 'NONE',  ( -0.000000000000000000, 1.000000000000000000, 0.000000000000000000 ) ) ;
#185 =( GEOMETRIC_REPRESENTATION_CONTEXT ( 3 ) GLOBAL_UNCERTAINTY_ASSIGNED_CONTEXT ( ( #355 ) ) GLOBAL_UNIT_ASSIGNED_CONTEXT ( ( #297, #9, #253 ) ) REPRESENTATION_CONTEXT ( 'NONE', 'WORKASPACE' ) );
#186 = LINE ( 'NONE', #568, #140 ) ;
#187 = CARTESIAN_POINT ( 'NONE',  ( 36.00000000000000000, 0.000000000000000000, 1.000000000000000000 ) ) ;
#188 = VECTOR ( 'NONE', #590, 1000.000000000000000 ) ;
#189 = EDGE_CURVE ( 'NONE', #64, #384, #8, .T. ) ;
#190 = PLANE ( 'NONE',  #570 ) ;
#191 = LINE ( 'NONE', #139, #124 ) ;
#192 = AXIS2_PLACEMENT_3D ( 'NONE', #135, #40, #613 ) ;
#193 = VECTOR ( 'NONE', #94, 1000.000000000000000 ) ;
#194 = EDGE_LOOP ( 'NONE', ( #603, #375, #454, #615, #451 ) ) ;
#195 = CARTESIAN_POINT ( 'NONE',  ( -36.00000000000000000, 1.224646799147353207E-16, -1.000000000000000000 ) ) ;
#197 = DIRECTION ( 'NONE',  ( 0.000000000000000000, 0.000000000000000000, -1.000000000000000000 ) ) ;
#196 = PRODUCT_RELATED_PRODUCT_CATEGORY ( 'part', '', ( #600 ) ) ;
#198 = FILL_AREA_STYLE_COLOUR ( '', #518 ) ;
#199 = CARTESIAN_POINT ( 'NONE',  ( 36.00000000000000000, 1.224646799147353207E-16, -1.000000000000000000 ) ) ;
#200 = DIRECTION ( 'NONE',  ( 0.000000000000000000, 0.000000000000000000, 1.000000000000000000 ) ) ;
#201 = EDGE_CURVE ( 'NONE', #358, #458, #160, .T. ) ;
#202 = DIRECTION ( 'NONE',  ( -0.000000000000000000, 1.000000000000000000, 0.000000000000000000 ) ) ;
#203 = CYLINDRICAL_SURFACE ( 'NONE', #624, 1.000000000000000000 ) ;
#204 = DIRECTION ( 'NONE',  ( 1.000000000000000000, -1.224646799147353207E-16, 0.000000000000000000 ) ) ;
#205 = CARTESIAN_POINT ( 'NONE',  ( 1.530808498934191521E-15, 0.000000000000000000, -25.00000000000000000 ) ) ;
#206 = CIRCLE ( 'NONE', #134, 29.39387691339814168 ) ;
#207 = ORIENTED_EDGE ( 'NONE', *, *, #356, .F. ) ;
#208 = DIRECTION ( 'NONE',  ( 0.000000000000000000, 1.000000000000000000, 1.475412278114711559E-16 ) ) ;
#209 = ADVANCED_FACE ( 'NONE', ( #257 ), #210, .F. ) ;
#210 = CYLINDRICAL_SURFACE ( 'NONE', #248, 1.000000000000000000 ) ;
#211 = ORIENTED_EDGE ( 'NONE', *, *, #389, .T. ) ;
#212 = CARTESIAN_POINT ( 'NONE',  ( 0.000000000000000000, 0.000000000000000000, 0.000000000000000000 ) ) ;
#213 = EDGE_LOOP ( 'NONE', ( #21, #325, #149, #228, #370, #158, #303, #579, #493, #161 ) ) ;
#214 = CARTESIAN_POINT ( 'NONE',  ( 0.000000000000000000, 0.000000000000000000, 0.000000000000000000 ) ) ;
#215 = CIRCLE ( 'NONE', #146, 29.39387691339814168 ) ;
#216 = EDGE_CURVE ( 'NONE', #233, #358, #265, .T. ) ;
#217 = ORIENTED_EDGE ( 'NONE', *, *, #509, .F. ) ;
#218 = VECTOR ( 'NONE', #252, 1000.000000000000000 ) ;
#219 = DIRECTION ( 'NONE',  ( -0.000000000000000000, 1.000000000000000000, 1.445602896647339163E-16 ) ) ;
#220 = ORIENTED_EDGE ( 'NONE', *, *, #30, .T. ) ;
#221 = AXIS2_PLACEMENT_3D ( 'NONE', #334, #34, #43 ) ;
#222 = DIRECTION ( 'NONE',  ( 1.000000000000000000, 0.000000000000000000, 0.000000000000000000 ) ) ;
#223 = AXIS2_PLACEMENT_3D ( 'NONE', #20, #222, #125 ) ;
#224 = EDGE_CURVE ( 'NONE', #123, #59, #591, .T. ) ;
#225 = ORIENTED_EDGE ( 'NONE', *, *, #453, .T. ) ;
#226 = DIRECTION ( 'NONE',  ( -1.224646799147353207E-16, -1.000000000000000000, -0.000000000000000000 ) ) ;
#227 = AXIS2_PLACEMENT_3D ( 'NONE', #587, #200, #479 ) ;
#228 = ORIENTED_EDGE ( 'NONE', *, *, #503, .F. ) ;
#229 = CARTESIAN_POINT ( 'NONE',  ( 28.77498913987631823, -6.000000000000000000, 6.000000000000000000 ) ) ;
#230 = PRESENTATION_STYLE_ASSIGNMENT (( #517 ) ) ;
#231 = ORIENTED_EDGE ( 'NONE', *, *, #224, .T. ) ;
#232 = LINE ( 'NONE', #177, #296 ) ;
#233 = VERTEX_POINT ( 'NONE', #268 ) ;
#234 = DIRECTION ( 'NONE',  ( 0.000000000000000000, 0.000000000000000000, 1.000000000000000000 ) ) ;
#235 = CARTESIAN_POINT ( 'NONE',  ( -27.99999999999999645, 6.000000000000000000, 6.000000000000001776 ) ) ;
#236 = ADVANCED_FACE ( 'NONE', ( #263 ), #117, .F. ) ;
#237 = AXIS2_PLACEMENT_3D ( 'NONE', #577, #148, #338 ) ;
#238 = PLANE ( 'NONE',  #192 ) ;
#239 =( LENGTH_UNIT ( ) NAMED_UNIT ( * ) SI_UNIT ( .MILLI., .METRE. ) );
#240 = AXIS2_PLACEMENT_3D ( 'NONE', #584, #490, #441 ) ;
#241 = ORIENTED_EDGE ( 'NONE', *, *, #254, .T. ) ;
#242 = CARTESIAN_POINT ( 'NONE',  ( 36.00000000000000000, 1.224646799147353207E-16, -1.000000000000000000 ) ) ;
#243 = CARTESIAN_POINT ( 'NONE',  ( -1.836970198721029983E-15, 0.000000000000000000, 30.00000000000000355 ) ) ;
#244 = ADVANCED_FACE ( 'NONE', ( #304 ), #357, .F. ) ;
#245 = ORIENTED_EDGE ( 'NONE', *, *, #374, .T. ) ;
#246 = DIRECTION ( 'NONE',  ( -1.000000000000000000, -0.000000000000000000, -0.000000000000000000 ) ) ;
#247 = SPHERICAL_SURFACE ( 'NONE', #240, 25.00000000000000000 ) ;
#248 = AXIS2_PLACEMENT_3D ( 'NONE', #271, #165, #16 ) ;
#249 = VECTOR ( 'NONE', #281, 1000.000000000000000 ) ;
#250 = FACE_OUTER_BOUND ( 'NONE', #365, .T. ) ;
#251 = VECTOR ( 'NONE', #23, 1000.000000000000000 ) ;
#252 = DIRECTION ( 'NONE',  ( -1.000000000000000000, -0.000000000000000000, -0.000000000000000000 ) ) ;
#253 =( NAMED_UNIT ( * ) SI_UNIT ( $, .STERADIAN. ) SOLID_ANGLE_UNIT ( ) );
#254 = EDGE_CURVE ( 'NONE', #379, #87, #411, .T. ) ;
#255 = EDGE_LOOP ( 'NONE', ( #583, #231, #344, #612, #300, #409 ) ) ;
#256 = CARTESIAN_POINT ( 'NONE',  ( 36.00000000000000000, 0.000000000000000000, 1.000000000000000000 ) ) ;
#257 = FACE_OUTER_BOUND ( 'NONE', #13, .T. ) ;
#258 = PRODUCT_CONTEXT ( 'NONE', #513, 'mechanical' ) ;
#259 = EDGE_LOOP ( 'NONE', ( #118, #616, #82, #306 ) ) ;
#260 = CARTESIAN_POINT ( 'NONE',  ( 27.99999999999999645, 6.000000000000000000, -5.999999999999998224 ) ) ;
#261 = ORIENTED_EDGE ( 'NONE', *, *, #262, .T. ) ;
#262 = EDGE_CURVE ( 'NONE', #462, #64, #601, .T. ) ;
#263 = FACE_OUTER_BOUND ( 'NONE', #10, .T. ) ;
#264 = ORIENTED_EDGE ( 'NONE', *, *, #201, .T. ) ;
#265 = LINE ( 'NONE', #68, #52 ) ;
#266 = CIRCLE ( 'NONE', #324, 29.39387691339814168 ) ;
#267 = ORIENTED_EDGE ( 'NONE', *, *, #619, .F. ) ;
#268 = CARTESIAN_POINT ( 'NONE',  ( -28.77498913987631823, 6.000000000000000000, -5.999999999999998224 ) ) ;
#269 = VERTEX_POINT ( 'NONE', #501 ) ;
#270 = PRESENTATION_LAYER_ASSIGNMENT (  '', '', ( #383 ) ) ;
#271 = CARTESIAN_POINT ( 'NONE',  ( 36.00000000000000000, 0.000000000000000000, 0.000000000000000000 ) ) ;
#272 = VECTOR ( 'NONE', #448, 1000.000000000000000 ) ;
#273 = ORIENTED_EDGE ( 'NONE', *, *, #282, .T. ) ;
#274 = EDGE_CURVE ( 'NONE', #120, #19, #57, .T. ) ;
#275 = AXIS2_PLACEMENT_3D ( 'NONE', #593, #108, #445 ) ;
#276 = CARTESIAN_POINT ( 'NONE',  ( -36.00000000000000000, 6.000000000000000000, 6.000000000000001776 ) ) ;
#277 = ORIENTED_EDGE ( 'NONE', *, *, #347, .F. ) ;
#278 = FACE_OUTER_BOUND ( 'NONE', #147, .T. ) ;
#279 = ORIENTED_EDGE ( 'NONE', *, *, #101, .F. ) ;
#280 = LINE ( 'NONE', #242, #604 ) ;
#281 = DIRECTION ( 'NONE',  ( -1.000000000000000000, -0.000000000000000000, -0.000000000000000000 ) ) ;
#282 = EDGE_CURVE ( 'NONE', #545, #555, #459, .T. ) ;
#283 = CARTESIAN_POINT ( 'NONE',  ( 28.77498913987631823, 6.000000000000000000, 6.000000000000001776 ) ) ;
#284 = FACE_OUTER_BOUND ( 'NONE', #259, .T. ) ;
#285 = DIRECTION ( 'NONE',  ( 0.000000000000000000, 1.000000000000000000, 1.445602896647339163E-16 ) ) ;
#286 = DIRECTION ( 'NONE',  ( 0.000000000000000000, -1.000000000000000000, 0.000000000000000000 ) ) ;
#287 = EDGE_CURVE ( 'NONE', #87, #555, #91, .T. ) ;
#288 = CARTESIAN_POINT ( 'NONE',  ( 0.000000000000000000, -8.673617379884035472E-16, 6.000000000000000888 ) ) ;
#289 = PLANE ( 'NONE',  #33 ) ;
#290 = FACE_OUTER_BOUND ( 'NONE', #133, .T. ) ;
#291 = DIRECTION ( 'NONE',  ( 0.000000000000000000, 0.000000000000000000, 1.000000000000000000 ) ) ;
#292 = CARTESIAN_POINT ( 'NONE',  ( 36.00000000000000000, 0.000000000000000000, 0.000000000000000000 ) ) ;
#293 = CARTESIAN_POINT ( 'NONE',  ( 36.00000000000000000, 6.000000000000000000, -5.999999999999998224 ) ) ;
#294 = ADVANCED_FACE ( 'NONE', ( #308 ), #171, .F. ) ;
#295 = CIRCLE ( 'NONE', #602, 1.000000000000000000 ) ;
#296 = VECTOR ( 'NONE', #88, 1000.000000000000000 ) ;
#297 =( LENGTH_UNIT ( ) NAMED_UNIT ( * ) SI_UNIT ( .MILLI., .METRE. ) );
#298 = EDGE_CURVE ( 'NONE', #549, #113, #333, .T. ) ;
#299 = AXIS2_PLACEMENT_3D ( 'NONE', #27, #452, #31 ) ;
#300 = ORIENTED_EDGE ( 'NONE', *, *, #152, .F. ) ;
#301 = CARTESIAN_POINT ( 'NONE',  ( 0.000000000000000000, -8.673617379884035472E-16, 6.000000000000000888 ) ) ;
#302 = CARTESIAN_POINT ( 'NONE',  ( 36.00000000000000000, 6.000000000000000000, 6.000000000000001776 ) ) ;
#303 = ORIENTED_EDGE ( 'NONE', *, *, #282, .F. ) ;
#304 = FACE_OUTER_BOUND ( 'NONE', #194, .T. ) ;
#305 = EDGE_CURVE ( 'NONE', #514, #358, #597, .T. ) ;
#306 = ORIENTED_EDGE ( 'NONE', *, *, #526, .T. ) ;
#307 = ADVANCED_FACE ( 'NONE', ( #548 ), #364, .T. ) ;
#308 = FACE_OUTER_BOUND ( 'NONE', #362, .T. ) ;
#309 = ORIENTED_EDGE ( 'NONE', *, *, #576, .T. ) ;
#310 = DIRECTION ( 'NONE',  ( 0.000000000000000000, -1.000000000000000000, -1.445602896647339163E-16 ) ) ;
#311 = ORIENTED_EDGE ( 'NONE', *, *, #461, .T. ) ;
#312 = DIRECTION ( 'NONE',  ( -0.000000000000000000, -1.000000000000000000, 0.000000000000000000 ) ) ;
#313 = AXIS2_PLACEMENT_3D ( 'NONE', #35, #180, #372 ) ;
#314 = ORIENTED_EDGE ( 'NONE', *, *, #39, .T. ) ;
#315 = LINE ( 'NONE', #508, #272 ) ;
#316 = ADVANCED_FACE ( 'NONE', ( #556 ), #551, .T. ) ;
#317 = ORIENTED_EDGE ( 'NONE', *, *, #129, .T. ) ;
#318 = CIRCLE ( 'NONE', #17, 29.39387691339814168 ) ;
#319 = CARTESIAN_POINT ( 'NONE',  ( 36.00000000000000000, 0.000000000000000000, 0.000000000000000000 ) ) ;
#320 = DIRECTION ( 'NONE',  ( 0.000000000000000000, -1.000000000000000000, 0.000000000000000000 ) ) ;
#321 = ORIENTED_EDGE ( 'NONE', *, *, #567, .F. ) ;
#322 = PLANE ( 'NONE',  #78 ) ;
#323 =( NAMED_UNIT ( * ) PLANE_ANGLE_UNIT ( ) SI_UNIT ( $, .RADIAN. ) );
#324 = AXIS2_PLACEMENT_3D ( 'NONE', #484, #535, #150 ) ;
#325 = ORIENTED_EDGE ( 'NONE', *, *, #96, .T. ) ;
#326 = EDGE_CURVE ( 'NONE', #113, #549, #363, .T. ) ;
#327 = DIRECTION ( 'NONE',  ( -1.000000000000000000, -0.000000000000000000, -0.000000000000000000 ) ) ;
#328 = DIRECTION ( 'NONE',  ( -1.000000000000000000, -0.000000000000000000, -0.000000000000000000 ) ) ;
#329 = AXIS2_PLACEMENT_3D ( 'NONE', #292, #155, #395 ) ;
#330 = CIRCLE ( 'NONE', #26, 1.000000000000000000 ) ;
#331 = DIRECTION ( 'NONE',  ( 0.000000000000000000, 0.000000000000000000, -1.000000000000000000 ) ) ;
#332 = FACE_OUTER_BOUND ( 'NONE', #255, .T. ) ;
#333 = CIRCLE ( 'NONE', #223, 1.000000000000000000 ) ;
#335 = EDGE_CURVE ( 'NONE', #609, #390, #315, .T. ) ;
#334 = CARTESIAN_POINT ( 'NONE',  ( 0.000000000000000000, 0.000000000000000000, 0.000000000000000000 ) ) ;
#336 = LINE ( 'NONE', #235, #423 ) ;
#337 = ORIENTED_EDGE ( 'NONE', *, *, #274, .T. ) ;
#338 = DIRECTION ( 'NONE',  ( 0.000000000000000000, 0.000000000000000000, -1.000000000000000000 ) ) ;
#339 = DIRECTION ( 'NONE',  ( -0.000000000000000000, 1.000000000000000000, 1.445602896647339163E-16 ) ) ;
#340 = DIRECTION ( 'NONE',  ( 0.000000000000000000, 1.445602896647339163E-16, -1.000000000000000000 ) ) ;
#341 = DIRECTION ( 'NONE',  ( 0.000000000000000000, 0.000000000000000000, 1.000000000000000000 ) ) ;
#342 = CYLINDRICAL_SURFACE ( 'NONE', #455, 1.000000000000000000 ) ;
#343 = CLOSED_SHELL ( 'NONE', ( #531, #437, #170, #307, #316, #410, #294, #610, #394, #62, #543, #244, #382, #236, #443, #209, #55, #176 ) ) ;
#344 = ORIENTED_EDGE ( 'NONE', *, *, #347, .T. ) ;
#345 = CARTESIAN_POINT ( 'NONE',  ( 29.39387691339814168, -3.599711727652431156E-15, 6.000000000000000888 ) ) ;
#346 = CIRCLE ( 'NONE', #378, 25.00000000000000000 ) ;
#347 = EDGE_CURVE ( 'NONE', #59, #609, #628, .T. ) ;
#348 = LINE ( 'NONE', #199, #218 ) ;
#349 = AXIS2_PLACEMENT_3D ( 'NONE', #534, #246, #594 ) ;
#350 = ORIENTED_EDGE ( 'NONE', *, *, #129, .F. ) ;
#351 = CARTESIAN_POINT ( 'NONE',  ( -36.00000000000000000, 6.000000000000000000, 6.000000000000001776 ) ) ;
#352 = AXIS2_PLACEMENT_3D ( 'NONE', #369, #327, #527 ) ;
#353 = ORIENTED_EDGE ( 'NONE', *, *, #298, .F. ) ;
#354 = CARTESIAN_POINT ( 'NONE',  ( 0.000000000000000000, 6.000000000000000000, 0.000000000000000000 ) ) ;
#355 = UNCERTAINTY_MEASURE_WITH_UNIT (LENGTH_MEASURE( 1.000000000000000082E-05 ), #297, 'distance_accuracy_value', 'NONE');
#356 = EDGE_CURVE ( 'NONE', #529, #29, #131, .T. ) ;
#357 = PLANE ( 'NONE',  #440 ) ;
#358 = VERTEX_POINT ( 'NONE', #380 ) ;
#359 = DIRECTION ( 'NONE',  ( 0.000000000000000000, 1.000000000000000000, 1.445602896647339163E-16 ) ) ;
#360 = ORIENTED_EDGE ( 'NONE', *, *, #427, .F. ) ;
#361 =( GEOMETRIC_REPRESENTATION_CONTEXT ( 3 ) GLOBAL_UNCERTAINTY_ASSIGNED_CONTEXT ( ( #522 ) ) GLOBAL_UNIT_ASSIGNED_CONTEXT ( ( #239, #323, #136 ) ) REPRESENTATION_CONTEXT ( 'NONE', 'WORKASPACE' ) );
#362 = EDGE_LOOP ( 'NONE', ( #444, #314, #515, #261, #418 ) ) ;
#363 = CIRCLE ( 'NONE', #386, 1.000000000000000000 ) ;
#364 = SPHERICAL_SURFACE ( 'NONE', #571, 30.00000000000000355 ) ;
#365 = EDGE_LOOP ( 'NONE', ( #36, #424, #400, #500 ) ) ;
#366 = EDGE_CURVE ( 'NONE', #175, #514, #80, .T. ) ;
#367 = DIRECTION ( 'NONE',  ( 0.000000000000000000, 0.000000000000000000, 1.000000000000000000 ) ) ;
#368 = ORIENTED_EDGE ( 'NONE', *, *, #589, .F. ) ;
#369 = CARTESIAN_POINT ( 'NONE',  ( -24.97999199359359679, 0.000000000000000000, 0.000000000000000000 ) ) ;
#370 = ORIENTED_EDGE ( 'NONE', *, *, #15, .F. ) ;
#371 = CARTESIAN_POINT ( 'NONE',  ( 27.99999999999999645, 6.000000000000000000, 6.000000000000001776 ) ) ;
#372 = DIRECTION ( 'NONE',  ( 0.000000000000000000, 1.000000000000000000, 1.475412278114711559E-16 ) ) ;
#373 = AXIS2_PLACEMENT_3D ( 'NONE', #354, #1, #197 ) ;
#374 = EDGE_CURVE ( 'NONE', #458, #588, #422, .T. ) ;
#375 = ORIENTED_EDGE ( 'NONE', *, *, #489, .T. ) ;
#376 = CARTESIAN_POINT ( 'NONE',  ( 36.00000000000000000, -6.000000000000000000, 6.000000000000000000 ) ) ;
#377 = DIRECTION ( 'NONE',  ( 0.000000000000000000, -0.000000000000000000, 1.000000000000000000 ) ) ;
#378 = AXIS2_PLACEMENT_3D ( 'NONE', #95, #286, #429 ) ;
#379 = VERTEX_POINT ( 'NONE', #283 ) ;
#380 = CARTESIAN_POINT ( 'NONE',  ( -36.00000000000000000, 6.000000000000000000, -5.999999999999998224 ) ) ;
#381 = CIRCLE ( 'NONE', #104, 25.00000000000000000 ) ;
#382 = ADVANCED_FACE ( 'NONE', ( #516 ), #322, .F. ) ;
#383 = STYLED_ITEM ( 'NONE', ( #230 ), #463 ) ;
#384 = VERTEX_POINT ( 'NONE', #464 ) ;
#385 = CARTESIAN_POINT ( 'NONE',  ( -27.99999999999999645, -6.000000000000000000, 6.000000000000000000 ) ) ;
#386 = AXIS2_PLACEMENT_3D ( 'NONE', #65, #174, #367 ) ;
#387 = ORIENTED_EDGE ( 'NONE', *, *, #254, .F. ) ;
#388 = CARTESIAN_POINT ( 'NONE',  ( 29.39387691339814168, -3.599711727652431156E-15, -5.999999999999998224 ) ) ;
#389 = EDGE_CURVE ( 'NONE', #166, #596, #169, .T. ) ;
#390 = VERTEX_POINT ( 'NONE', #85 ) ;
#391 = CARTESIAN_POINT ( 'NONE',  ( 0.000000000000000000, 0.000000000000000000, 0.000000000000000000 ) ) ;
#392 =( LENGTH_UNIT ( ) NAMED_UNIT ( * ) SI_UNIT ( .MILLI., .METRE. ) );
#393 = DIRECTION ( 'NONE',  ( 0.000000000000000000, 1.000000000000000000, 1.475412278114711559E-16 ) ) ;
#394 = ADVANCED_FACE ( 'NONE', ( #625 ), #190, .F. ) ;
#395 = DIRECTION ( 'NONE',  ( 0.000000000000000000, 0.000000000000000000, -1.000000000000000000 ) ) ;
#396 = CARTESIAN_POINT ( 'NONE',  ( 36.00000000000000000, 6.000000000000000000, 6.000000000000001776 ) ) ;
#397 = ORIENTED_EDGE ( 'NONE', *, *, #453, .F. ) ;
#398 = CARTESIAN_POINT ( 'NONE',  ( 27.99999999999999645, 6.000000000000000000, 6.000000000000001776 ) ) ;
#399 = CARTESIAN_POINT ( 'NONE',  ( 36.00000000000000000, 6.000000000000000000, -5.999999999999998224 ) ) ;
#400 = ORIENTED_EDGE ( 'NONE', *, *, #326, .F. ) ;
#401 = CARTESIAN_POINT ( 'NONE',  ( -36.00000000000000000, 6.000000000000000000, -5.999999999999998224 ) ) ;
#402 = ORIENTED_EDGE ( 'NONE', *, *, #298, .T. ) ;
#403 = CIRCLE ( 'NONE', #483, 29.39387691339814168 ) ;
#404 = CARTESIAN_POINT ( 'NONE',  ( 0.000000000000000000, 0.000000000000000000, 0.000000000000000000 ) ) ;
#405 = ORIENTED_EDGE ( 'NONE', *, *, #216, .T. ) ;
#406 = AXIS2_PLACEMENT_3D ( 'NONE', #404, #554, #70 ) ;
#407 = DIRECTION ( 'NONE',  ( -1.000000000000000000, 0.000000000000000000, 0.000000000000000000 ) ) ;
#408 = AXIS2_PLACEMENT_3D ( 'NONE', #569, #89, #626 ) ;
#409 = ORIENTED_EDGE ( 'NONE', *, *, #326, .T. ) ;
#410 = ADVANCED_FACE ( 'NONE', ( #475 ), #420, .F. ) ;
#411 = CIRCLE ( 'NONE', #172, 29.39387691339814168 ) ;
#412 = EDGE_LOOP ( 'NONE', ( #574, #546, #497, #267 ) ) ;
#413 = DIRECTION ( 'NONE',  ( -1.000000000000000000, -0.000000000000000000, -0.000000000000000000 ) ) ;
#414 = ORIENTED_EDGE ( 'NONE', *, *, #145, .T. ) ;
#415 = EDGE_CURVE ( 'NONE', #59, #559, #280, .T. ) ;
#416 = DIRECTION ( 'NONE',  ( -1.000000000000000000, -0.000000000000000000, -0.000000000000000000 ) ) ;
#417 = DIRECTION ( 'NONE',  ( 0.000000000000000000, 0.000000000000000000, 1.000000000000000000 ) ) ;
#418 = ORIENTED_EDGE ( 'NONE', *, *, #145, .F. ) ;
#419 = ORIENTED_EDGE ( 'NONE', *, *, #287, .F. ) ;
#420 = PLANE ( 'NONE',  #457 ) ;
#421 = SURFACE_SIDE_STYLE ('',( #143 ) ) ;
#422 = LINE ( 'NONE', #276, #544 ) ;
#423 = VECTOR ( 'NONE', #623, 1000.000000000000000 ) ;
#424 = ORIENTED_EDGE ( 'NONE', *, *, #101, .T. ) ;
#425 = CARTESIAN_POINT ( 'NONE',  ( -36.00000000000000000, 6.000000000000000000, 6.000000000000001776 ) ) ;
#426 = VECTOR ( 'NONE', #339, 1000.000000000000000 ) ;
#427 = EDGE_CURVE ( 'NONE', #430, #529, #232, .T. ) ;
#428 = ORIENTED_EDGE ( 'NONE', *, *, #262, .F. ) ;
#429 = DIRECTION ( 'NONE',  ( 0.000000000000000000, 0.000000000000000000, -1.000000000000000000 ) ) ;
#430 = VERTEX_POINT ( 'NONE', #229 ) ;
#431 = CARTESIAN_POINT ( 'NONE',  ( -24.97999199359359679, 0.000000000000000000, 1.000000000000000000 ) ) ;
#432 = LINE ( 'NONE', #399, #426 ) ;
#433 = ORIENTED_EDGE ( 'NONE', *, *, #567, .T. ) ;
#434 = APPLICATION_CONTEXT ( 'automotive_design' ) ;
#435 = CARTESIAN_POINT ( 'NONE',  ( 36.00000000000000000, 0.000000000000000000, 0.000000000000000000 ) ) ;
#436 = SURFACE_STYLE_USAGE ( .BOTH. , #582 ) ;
#437 = ADVANCED_FACE ( 'NONE', ( #278 ), #467, .F. ) ;
#438 = VECTOR ( 'NONE', #328, 1000.000000000000000 ) ;
#439 = DIRECTION ( 'NONE',  ( -1.000000000000000000, -0.000000000000000000, -0.000000000000000000 ) ) ;
#440 = AXIS2_PLACEMENT_3D ( 'NONE', #77, #558, #122 ) ;
#441 = DIRECTION ( 'NONE',  ( 1.000000000000000000, 0.000000000000000000, 0.000000000000000000 ) ) ;
#442 = APPLICATION_PROTOCOL_DEFINITION ( 'draft international standard', 'automotive_design', 1998, #434 ) ;
#443 = ADVANCED_FACE ( 'NONE', ( #127, #469 ), #238, .F. ) ;
#444 = ORIENTED_EDGE ( 'NONE', *, *, #461, .F. ) ;
#445 = DIRECTION ( 'NONE',  ( 0.000000000000000000, -1.000000000000000000, -1.475412278114711559E-16 ) ) ;
#446 = DIRECTION ( 'NONE',  ( 0.000000000000000000, -1.000000000000000000, -1.445602896647339163E-16 ) ) ;
#447 = ORIENTED_EDGE ( 'NONE', *, *, #84, .F. ) ;
#448 = DIRECTION ( 'NONE',  ( -1.000000000000000000, -0.000000000000000000, -0.000000000000000000 ) ) ;
#449 = ORIENTED_EDGE ( 'NONE', *, *, #474, .T. ) ;
#450 = DIRECTION ( 'NONE',  ( -1.000000000000000000, 0.000000000000000000, 0.000000000000000000 ) ) ;
#451 = ORIENTED_EDGE ( 'NONE', *, *, #305, .T. ) ;
#452 = DIRECTION ( 'NONE',  ( 0.000000000000000000, 1.000000000000000000, 0.000000000000000000 ) ) ;
#453 = EDGE_CURVE ( 'NONE', #19, #120, #330, .T. ) ;
#454 = ORIENTED_EDGE ( 'NONE', *, *, #496, .T. ) ;
#455 = AXIS2_PLACEMENT_3D ( 'NONE', #100, #439, #61 ) ;
#456 = DIRECTION ( 'NONE',  ( 0.000000000000000000, 1.445602896647339163E-16, -1.000000000000000000 ) ) ;
#457 = AXIS2_PLACEMENT_3D ( 'NONE', #371, #37, #331 ) ;
#458 = VERTEX_POINT ( 'NONE', #425 ) ;
#459 = CIRCLE ( 'NONE', #299, 30.00000000000000355 ) ;
#460 = CARTESIAN_POINT ( 'NONE',  ( 27.99999999999999645, 6.000000000000000000, -5.999999999999998224 ) ) ;
#461 = EDGE_CURVE ( 'NONE', #115, #29, #186, .T. ) ;
#462 = VERTEX_POINT ( 'NONE', #138 ) ;
#463 = MANIFOLD_SOLID_BREP ( 'Cut-Extrude1', #343 ) ;
#464 = CARTESIAN_POINT ( 'NONE',  ( 36.00000000000000000, 6.000000000000000000, 6.000000000000001776 ) ) ;
#465 = DIRECTION ( 'NONE',  ( 0.000000000000000000, 0.000000000000000000, -1.000000000000000000 ) ) ;
#466 = ORIENTED_EDGE ( 'NONE', *, *, #503, .T. ) ;
#467 = CYLINDRICAL_SURFACE ( 'NONE', #106, 1.000000000000000000 ) ;
#468 = CARTESIAN_POINT ( 'NONE',  ( -36.00000000000000000, -6.000000000000000000, -6.000000000000000000 ) ) ;
#469 = FACE_OUTER_BOUND ( 'NONE', #141, .T. ) ;
#470 = CARTESIAN_POINT ( 'NONE',  ( 0.000000000000000000, -6.000000000000000000, 0.000000000000000000 ) ) ;
#471 = DIRECTION ( 'NONE',  ( 0.000000000000000000, -1.000000000000000000, 0.000000000000000000 ) ) ;
#472 = PLANE ( 'NONE',  #51 ) ;
#473 = PRESENTATION_LAYER_ASSIGNMENT (  '', '', ( #22 ) ) ;
#474 = EDGE_CURVE ( 'NONE', #19, #113, #630, .T. ) ;
#475 = FACE_OUTER_BOUND ( 'NONE', #126, .T. ) ;
#476 = LINE ( 'NONE', #398, #112 ) ;
#477 = APPLICATION_PROTOCOL_DEFINITION ( 'draft international standard', 'automotive_design', 1998, #513 ) ;
#478 = CARTESIAN_POINT ( 'NONE',  ( 0.000000000000000000, -8.673617379884035472E-16, 6.000000000000000888 ) ) ;
#479 = DIRECTION ( 'NONE',  ( 1.000000000000000000, 0.000000000000000000, 0.000000000000000000 ) ) ;
#480 = EDGE_CURVE ( 'NONE', #269, #588, #144, .T. ) ;
#481 =( NAMED_UNIT ( * ) PLANE_ANGLE_UNIT ( ) SI_UNIT ( $, .RADIAN. ) );
#482 = CARTESIAN_POINT ( 'NONE',  ( 24.97999199359359679, 0.000000000000000000, 1.000000000000000000 ) ) ;
#483 = AXIS2_PLACEMENT_3D ( 'NONE', #470, #41, #417 ) ;
#484 = CARTESIAN_POINT ( 'NONE',  ( 0.000000000000000000, 8.673617379884033500E-16, -5.999999999999999112 ) ) ;
#485 = DIRECTION ( 'NONE',  ( 0.000000000000000000, 0.000000000000000000, -1.000000000000000000 ) ) ;
#486 = PRESENTATION_STYLE_ASSIGNMENT (( #436 ) ) ;
#487 = CIRCLE ( 'NONE', #349, 1.000000000000000000 ) ;
#488 = CIRCLE ( 'NONE', #103, 29.39387691339814168 ) ;
#489 = EDGE_CURVE ( 'NONE', #233, #596, #56, .T. ) ;
#490 = DIRECTION ( 'NONE',  ( -0.000000000000000000, 1.000000000000000000, 0.000000000000000000 ) ) ;
#491 = FILL_AREA_STYLE ('',( #198 ) ) ;
#492 = AXIS2_PLACEMENT_3D ( 'NONE', #260, #119, #310 ) ;
#493 = ORIENTED_EDGE ( 'NONE', *, *, #598, .F. ) ;
#494 = DIRECTION ( 'NONE',  ( 1.224646799147353207E-16, 1.000000000000000000, 0.000000000000000000 ) ) ;
#495 = DIRECTION ( 'NONE',  ( 0.000000000000000000, 1.445602896647339163E-16, -1.000000000000000000 ) ) ;
#496 = EDGE_CURVE ( 'NONE', #596, #175, #488, .T. ) ;
#497 = ORIENTED_EDGE ( 'NONE', *, *, #335, .T. ) ;
#498 =( GEOMETRIC_REPRESENTATION_CONTEXT ( 3 ) GLOBAL_UNCERTAINTY_ASSIGNED_CONTEXT ( ( #550 ) ) GLOBAL_UNIT_ASSIGNED_CONTEXT ( ( #392, #481, #98 ) ) REPRESENTATION_CONTEXT ( 'NONE', 'WORKASPACE' ) );
#499 = CARTESIAN_POINT ( 'NONE',  ( 0.000000000000000000, 0.000000000000000000, 0.000000000000000000 ) ) ;
#500 = ORIENTED_EDGE ( 'NONE', *, *, #474, .F. ) ;
#501 = CARTESIAN_POINT ( 'NONE',  ( -28.77498913987631823, -6.000000000000000000, 6.000000000000000000 ) ) ;
#502 = ORIENTED_EDGE ( 'NONE', *, *, #75, .T. ) ;
#503 = EDGE_CURVE ( 'NONE', #430, #115, #403, .T. ) ;
#504 = DIRECTION ( 'NONE',  ( 0.000000000000000000, 0.000000000000000000, 1.000000000000000000 ) ) ;
#505 = EDGE_LOOP ( 'NONE', ( #217, #433, #405, #264 ) ) ;
#506 = CARTESIAN_POINT ( 'NONE',  ( 36.00000000000000000, 0.000000000000000000, 0.000000000000000000 ) ) ;
#507 = EDGE_LOOP ( 'NONE', ( #225, #337 ) ) ;
#508 = CARTESIAN_POINT ( 'NONE',  ( 36.00000000000000000, 0.000000000000000000, 1.000000000000000000 ) ) ;
#509 = EDGE_CURVE ( 'NONE', #97, #458, #336, .T. ) ;
#510 = ORIENTED_EDGE ( 'NONE', *, *, #45, .T. ) ;
#511 = FILL_AREA_STYLE ('',( #572 ) ) ;
#512 = CARTESIAN_POINT ( 'NONE',  ( 36.00000000000000000, -6.000000000000000000, 6.000000000000000000 ) ) ;
#513 = APPLICATION_CONTEXT ( 'automotive_design' ) ;
#514 = VERTEX_POINT ( 'NONE', #468 ) ;
#515 = ORIENTED_EDGE ( 'NONE', *, *, #589, .T. ) ;
#516 = FACE_OUTER_BOUND ( 'NONE', #505, .T. ) ;
#517 = SURFACE_STYLE_USAGE ( .BOTH. , #421 ) ;
#518 = COLOUR_RGB ( '',0.7921568627450980005, 0.8196078431372548767, 0.9333333333333333481 ) ;
#519 = ORIENTED_EDGE ( 'NONE', *, *, #480, .F. ) ;
#520 = DIRECTION ( 'NONE',  ( -1.000000000000000000, -0.000000000000000000, -0.000000000000000000 ) ) ;
#521 = CARTESIAN_POINT ( 'NONE',  ( -27.99999999999999645, -6.000000000000000000, 6.000000000000000000 ) ) ;
#522 = UNCERTAINTY_MEASURE_WITH_UNIT (LENGTH_MEASURE( 1.000000000000000082E-05 ), #239, 'distance_accuracy_value', 'NONE');
#523 = AXIS2_PLACEMENT_3D ( 'NONE', #506, #450, #504 ) ;
#524 = DIRECTION ( 'NONE',  ( -1.000000000000000000, 0.000000000000000000, 0.000000000000000000 ) ) ;
#525 = CARTESIAN_POINT ( 'NONE',  ( 0.000000000000000000, 0.000000000000000000, 0.000000000000000000 ) ) ;
#526 = EDGE_CURVE ( 'NONE', #588, #514, #191, .T. ) ;
#527 = DIRECTION ( 'NONE',  ( 0.000000000000000000, 0.000000000000000000, -1.000000000000000000 ) ) ;
#528 = CARTESIAN_POINT ( 'NONE',  ( 24.97999199359359679, 1.224646799147353207E-16, -1.000000000000000000 ) ) ;
#529 = VERTEX_POINT ( 'NONE', #512 ) ;
#530 = CARTESIAN_POINT ( 'NONE',  ( 28.77498913987631823, -6.000000000000000000, -6.000000000000000000 ) ) ;
#531 = ADVANCED_FACE ( 'NONE', ( #332 ), #618, .F. ) ;
#532 = CARTESIAN_POINT ( 'NONE',  ( 0.000000000000000000, 0.000000000000000000, 0.000000000000000000 ) ) ;
#533 = CARTESIAN_POINT ( 'NONE',  ( -29.39387691339814168, -4.814824860968089633E-32, -5.999999999999998224 ) ) ;
#534 = CARTESIAN_POINT ( 'NONE',  ( -24.97999199359359679, 0.000000000000000000, 0.000000000000000000 ) ) ;
#535 = DIRECTION ( 'NONE',  ( 0.000000000000000000, -1.445602896647339163E-16, 1.000000000000000000 ) ) ;
#536 = FACE_BOUND ( 'NONE', #507, .T. ) ;
#537 = MECHANICAL_DESIGN_GEOMETRIC_PRESENTATION_REPRESENTATION (  '', ( #22 ), #185 ) ;
#538 = CARTESIAN_POINT ( 'NONE',  ( 0.000000000000000000, 0.000000000000000000, 0.000000000000000000 ) ) ;
#539 = VECTOR ( 'NONE', #542, 1000.000000000000000 ) ;
#540 = ORIENTED_EDGE ( 'NONE', *, *, #305, .F. ) ;
#541 = COLOUR_RGB ( '',0.7921568627450980005, 0.8196078431372548767, 0.9333333333333333481 ) ;
#542 = DIRECTION ( 'NONE',  ( -0.000000000000000000, -0.000000000000000000, 1.000000000000000000 ) ) ;
#543 = ADVANCED_FACE ( 'NONE', ( #284 ), #472, .F. ) ;
#544 = VECTOR ( 'NONE', #92, 1000.000000000000000 ) ;
#545 = VERTEX_POINT ( 'NONE', #573 ) ;
#546 = ORIENTED_EDGE ( 'NONE', *, *, #75, .F. ) ;
#547 = CIRCLE ( 'NONE', #275, 29.39387691339814168 ) ;
#548 = FACE_OUTER_BOUND ( 'NONE', #213, .T. ) ;
#549 = VERTEX_POINT ( 'NONE', #528 ) ;
#550 = UNCERTAINTY_MEASURE_WITH_UNIT (LENGTH_MEASURE( 1.000000000000000082E-05 ), #392, 'distance_accuracy_value', 'NONE');
#551 = SPHERICAL_SURFACE ( 'NONE', #28, 30.00000000000000355 ) ;
#552 = ORIENTED_EDGE ( 'NONE', *, *, #84, .T. ) ;
#553 = EDGE_CURVE ( 'NONE', #123, #549, #346, .T. ) ;
#554 = DIRECTION ( 'NONE',  ( 1.224646799147353207E-16, 1.000000000000000000, 0.000000000000000000 ) ) ;
#555 = VERTEX_POINT ( 'NONE', #243 ) ;
#556 = FACE_OUTER_BOUND ( 'NONE', #79, .T. ) ;
#557 = EDGE_LOOP ( 'NONE', ( #32, #561, #402, #66, #164, #502 ) ) ;
#558 = DIRECTION ( 'NONE',  ( 0.000000000000000000, -1.445602896647339163E-16, 1.000000000000000000 ) ) ;
#559 = VERTEX_POINT ( 'NONE', #195 ) ;
#560 = DIRECTION ( 'NONE',  ( 0.000000000000000000, 0.000000000000000000, 1.000000000000000000 ) ) ;
#561 = ORIENTED_EDGE ( 'NONE', *, *, #553, .T. ) ;
#562 = CARTESIAN_POINT ( 'NONE',  ( -27.99999999999999645, -6.000000000000000000, -6.000000000000000000 ) ) ;
#563 = CARTESIAN_POINT ( 'NONE',  ( -36.00000000000000000, -6.000000000000000000, 6.000000000000000000 ) ) ;
#564 = VERTEX_POINT ( 'NONE', #388 ) ;
#565 = CARTESIAN_POINT ( 'NONE',  ( 27.99999999999999645, -6.000000000000000000, 6.000000000000000000 ) ) ;
#566 = AXIS2_PLACEMENT_3D ( 'NONE', #391, #6, #204 ) ;
#567 = EDGE_CURVE ( 'NONE', #97, #233, #206, .T. ) ;
#568 = CARTESIAN_POINT ( 'NONE',  ( 27.99999999999999645, -6.000000000000000000, -6.000000000000000000 ) ) ;
#569 = CARTESIAN_POINT ( 'NONE',  ( 0.000000000000000000, 8.673617379884033500E-16, -5.999999999999999112 ) ) ;
#570 = AXIS2_PLACEMENT_3D ( 'NONE', #565, #611, #285 ) ;
#571 = AXIS2_PLACEMENT_3D ( 'NONE', #499, #167, #407 ) ;
#572 = FILL_AREA_STYLE_COLOUR ( '', #541 ) ;
#573 = CARTESIAN_POINT ( 'NONE',  ( -29.39387691339814168, 9.629649721936179265E-32, 6.000000000000000888 ) ) ;
#574 = ORIENTED_EDGE ( 'NONE', *, *, #415, .F. ) ;
#576 = EDGE_CURVE ( 'NONE', #545, #97, #157, .T. ) ;
#575 = DIRECTION ( 'NONE',  ( -1.000000000000000000, 1.224646799147353207E-16, 0.000000000000000000 ) ) ;
#577 = CARTESIAN_POINT ( 'NONE',  ( -36.00000000000000000, 0.000000000000000000, 0.000000000000000000 ) ) ;
#578 = PRODUCT_DEFINITION_FORMATION_WITH_SPECIFIED_SOURCE ( 'ANY', '', #600, .NOT_KNOWN. ) ;
#579 = ORIENTED_EDGE ( 'NONE', *, *, #121, .F. ) ;
#580 = FACE_OUTER_BOUND ( 'NONE', #621, .T. ) ;
#581 = CARTESIAN_POINT ( 'NONE',  ( -36.00000000000000000, 0.000000000000000000, 0.000000000000000000 ) ) ;
#582 = SURFACE_SIDE_STYLE ('',( #585 ) ) ;
#583 = ORIENTED_EDGE ( 'NONE', *, *, #553, .F. ) ;
#584 = CARTESIAN_POINT ( 'NONE',  ( 0.000000000000000000, 0.000000000000000000, 0.000000000000000000 ) ) ;
#585 = SURFACE_STYLE_FILL_AREA ( #491 ) ;
#586 = LINE ( 'NONE', #302, #24 ) ;
#587 = CARTESIAN_POINT ( 'NONE',  ( 0.000000000000000000, 0.000000000000000000, 0.000000000000000000 ) ) ;
#588 = VERTEX_POINT ( 'NONE', #563 ) ;
#589 = EDGE_CURVE ( 'NONE', #564, #462, #266, .T. ) ;
#590 = DIRECTION ( 'NONE',  ( -0.000000000000000000, -0.000000000000000000, 1.000000000000000000 ) ) ;
#591 = CIRCLE ( 'NONE', #406, 25.00000000000000000 ) ;
#592 = ORIENTED_EDGE ( 'NONE', *, *, #189, .T. ) ;
#593 = CARTESIAN_POINT ( 'NONE',  ( 0.000000000000000000, 8.673617379884033500E-16, -5.999999999999999112 ) ) ;
#594 = DIRECTION ( 'NONE',  ( 0.000000000000000000, 0.000000000000000000, -1.000000000000000000 ) ) ;
#595 = CIRCLE ( 'NONE', #153, 25.00000000000000000 ) ;
#596 = VERTEX_POINT ( 'NONE', #533 ) ;
#597 = LINE ( 'NONE', #401, #606 ) ;
#598 = EDGE_CURVE ( 'NONE', #175, #269, #215, .T. ) ;
#599 = EDGE_LOOP ( 'NONE', ( #107, #241, #69, #76, #447 ) ) ;
#600 = PRODUCT ( 'TANK', 'TANK', '', ( #258 ) ) ;
#601 = LINE ( 'NONE', #460, #251 ) ;
#602 = AXIS2_PLACEMENT_3D ( 'NONE', #581, #49, #485 ) ;
#603 = ORIENTED_EDGE ( 'NONE', *, *, #216, .F. ) ;
#604 = VECTOR ( 'NONE', #520, 1000.000000000000000 ) ;
#605 = CARTESIAN_POINT ( 'NONE',  ( -27.99999999999999645, 6.000000000000000000, 6.000000000000001776 ) ) ;
#606 = VECTOR ( 'NONE', #219, 1000.000000000000000 ) ;
#607 = ORIENTED_EDGE ( 'NONE', *, *, #201, .F. ) ;
#608 = DIRECTION ( 'NONE',  ( -1.000000000000000000, 0.000000000000000000, 0.000000000000000000 ) ) ;
#609 = VERTEX_POINT ( 'NONE', #431 ) ;
#610 = ADVANCED_FACE ( 'NONE', ( #580 ), #289, .F. ) ;
#611 = DIRECTION ( 'NONE',  ( 0.000000000000000000, 1.445602896647339163E-16, -1.000000000000000000 ) ) ;
#612 = ORIENTED_EDGE ( 'NONE', *, *, #7, .T. ) ;
#613 = DIRECTION ( 'NONE',  ( 0.000000000000000000, 0.000000000000000000, -1.000000000000000000 ) ) ;
#614 = DIRECTION ( 'NONE',  ( -0.000000000000000000, 1.000000000000000000, 0.000000000000000000 ) ) ;
#615 = ORIENTED_EDGE ( 'NONE', *, *, #366, .T. ) ;
#616 = ORIENTED_EDGE ( 'NONE', *, *, #598, .T. ) ;
#617 = CARTESIAN_POINT ( 'NONE',  ( 36.00000000000000000, 0.000000000000000000, 0.000000000000000000 ) ) ;
#618 = SPHERICAL_SURFACE ( 'NONE', #83, 25.00000000000000000 ) ;
#619 = EDGE_CURVE ( 'NONE', #559, #390, #72, .T. ) ;
#620 = PRODUCT_DEFINITION_CONTEXT ( 'detailed design', #434, 'design' ) ;
#621 = EDGE_LOOP ( 'NONE', ( #360, #466, #311, #207 ) ) ;
#622 = CARTESIAN_POINT ( 'NONE',  ( -27.99999999999999645, 6.000000000000000000, -5.999999999999998224 ) ) ;
#623 = DIRECTION ( 'NONE',  ( -1.000000000000000000, -0.000000000000000000, -0.000000000000000000 ) ) ;
#624 = AXIS2_PLACEMENT_3D ( 'NONE', #435, #58, #111 ) ;
#625 = FACE_OUTER_BOUND ( 'NONE', #599, .T. ) ;
#626 = DIRECTION ( 'NONE',  ( 0.000000000000000000, -1.000000000000000000, -1.475412278114711559E-16 ) ) ;
#627 = MECHANICAL_DESIGN_GEOMETRIC_PRESENTATION_REPRESENTATION (  '', ( #383 ), #361 ) ;
#628 = CIRCLE ( 'NONE', #352, 1.000000000000000000 ) ;
#629 = EDGE_LOOP ( 'NONE', ( #317, #60 ) ) ;
#630 = LINE ( 'NONE', #187, #438 ) ;
ENDSEC;
END-ISO-10303-21;
